# xmcd
#
# Track frame offsets: 
#        150
#        11555
#        21987
#        36995
#        65427
#        76045
#        86495
#        104205
#        130687
#        143875
#        166315
#        176555
#        186295
#        206355
#
# Disc length: 2924 seconds
#
# Revision: 0
# Processed by: cddbd v1.5.2PL0 Copyright (c) Steve Scherf et al.
# Submitted via: ExactAudioCopyFreeDBPlugin 1.0
#
DISCID=ba0b6a0e
DTITLE=Various Artist - Bob Riedy's Blues Shows Of The 70's
DYEAR=2004
DGENRE=Blues
TTITLE0=John Littlejohn - Dust My Broom
TTITLE1=Johnny Young - Johnny's Jump
TTITLE2=Jimmy Rogers - Sloppy Drunk
TTITLE3=Carey Bell - Heart Aches And Pain
TTITLE4=Johnny Young - Mandolin Boogie
TTITLE5=Jimmy Rogers - Slick Chick
TTITLE6=Magic Slim With The Teardrops - Mama Talk To Your Daughter
TTITLE7=Magic Slim With The Teardrops - Trouble Blues
TTITLE8=Bob Riedy - Marie
TTITLE9=Magic Slim With The Teardrops - Nobody Wants To Lose
TTITLE10=Big Twist With The Mellow Fellows - It's Love Baby (2 Hours A
TTITLE10=Day)
TTITLE11=Eddy Clearwater - Pretty Baby
TTITLE12=Richard 'Hub Cap' Robinson - I Got A Woman
TTITLE13=Big Twist With The Mellow Fellows - We're Gonna Make It
EXTD=
EXTT0=
EXTT1=
EXTT2=
EXTT3=
EXTT4=
EXTT5=
EXTT6=
EXTT7=
EXTT8=
EXTT9=
EXTT10=
EXTT11=
EXTT12=
EXTT13=
PLAYORDER=
